# xmcd CD database file
#
# Track frame offsets:
#	150
#	12989
#	36486
#	49059
#	61783
#	71980
#	81996
#	91469
#	102049
#	113130
#	124059
#	135342
#	146195
#	156413
#	168083
#	181094
#	192153
#	201740
#	209301
#	219695
#	229978
#	240408
#	251501
#	262259
#	273754
#	284865
#	292864
#	304454
#	314477
#
# Disc length: 4348 seconds
#
# Revision: 0
# Processed by: cddbd v1.5.2PL0 Copyright (c) Steve Scherf et al.
# Submitted via: CDex 1.51
#
DISCID=c510fa1d
DTITLE=Various Country - Country 45's Vol 3
DYEAR=2006
DGENRE=Country
TTITLE0=Moe Bandy-Bandy The Rodeo Clown
TTITLE1=Jim Reeves-Live Medley
TTITLE2=Side Of The Road Gang-What Am I Doin' Hangin' Round
TTITLE3=Bobby Austin-Apartment Number 9
TTITLE4=Johnnie and Jack-Oh Baby Mine-Stereo
TTITLE5=Skeeter Davis-I Can't Believe That It's All Over
TTITLE6=Webb Pierce-I Don't Care-Stereo
TTITLE7=Bonnie Guitar-Once A Day
TTITLE8=Bobby G Rice-Freda Comes Freda Goes
TTITLE9=Gosdin Brothers-The Sounds Of Goodbye
TTITLE10=Billy Grammer-Gotta Trave On-Stereo rerecording
TTITLE11=Nat Stuckey-Joe And Mabels 12th Street Bar And Grill
TTITLE12=George Jones and Gene Pitney-Mockingbird Hill
TTITLE13=Carl Smith-Hey Joe
TTITLE14=Frank Ifield-Lonesome Jubilee
TTITLE15=Billy Crash Craddock-Knock Three Times
TTITLE16=Dave Dudley-Last Day In The Mines
TTITLE17=Norman-Danny Davis and The Nashville Brass
TTITLE18=Waylon Jennings-Burning Memories
TTITLE19=Tommy Collins-Sam Hill
TTITLE20=Johnny Sea-3 Six Packs Two Arms and A Juke Box
TTITLE21=Jack Blanchard and Misty Morgan-Somewhere In Virginia In The Rain
TTITLE22=Eddy Arnold-Soul Deep
TTITLE23=George Goober Lindsay-Sweet Thang
TTITLE24=Buddy Alan-Things
TTITLE25=Buddy Knox-Travelin' Light
TTITLE26=George Hamilton IV-West Texas Highway
TTITLE27=Sonny Curtis-Walk Right Back
TTITLE28=Carter Family-Ring Of Fire
EXTD=YEAR: 2006
EXTT0=
EXTT1=
EXTT2=
EXTT3=
EXTT4=
EXTT5=
EXTT6=
EXTT7=
EXTT8=
EXTT9=
EXTT10=
EXTT11=
EXTT12=
EXTT13=
EXTT14=
EXTT15=
EXTT16=
EXTT17=
EXTT18=
EXTT19=
EXTT20=
EXTT21=
EXTT22=
EXTT23=
EXTT24=
EXTT25=
EXTT26=
EXTT27=
EXTT28=
PLAYORDER=
